<svg width="61" height="60" viewBox="0 0 61 60" fill="none" xmlns="http://www.w3.org/2000/svg">
<path d="M30.7161 59.6063C47.0723 59.6063 60.3316 46.3469 60.3316 29.9908C60.3316 13.6346 47.0723 0.375244 30.7161 0.375244C14.3599 0.375244 1.10059 13.6346 1.10059 29.9908C1.10059 46.3469 14.3599 59.6063 30.7161 59.6063Z" fill="#1A1819"/>
<path d="M59.9467 29.9908C59.938 35.7888 58.2099 41.4761 54.9826 46.2934C51.8501 50.9695 47.3511 54.6638 42.1869 56.8879C36.8098 59.2036 30.7244 59.7973 24.9892 58.6613C19.4151 57.5572 14.2448 54.7882 10.1963 50.8078C6.14871 46.8281 3.33532 41.6899 2.13421 36.145C0.890996 30.406 1.44952 24.3343 3.66011 18.9004C5.77598 13.6993 9.4596 9.16244 14.0652 5.962C18.8117 2.66376 24.4886 0.858882 30.2636 0.76371C36.064 0.668088 41.8046 2.33338 46.6671 5.49153C51.3866 8.55675 55.1442 12.9986 57.4426 18.1296C59.1083 21.8483 59.9406 25.9207 59.9467 29.9908C59.9475 30.4874 60.7176 30.4874 60.7168 29.9908C60.7081 24.1793 59.0147 18.4469 55.8342 13.5805C52.7493 8.86017 48.324 5.05385 43.199 2.70457C37.837 0.246647 31.8147 -0.541109 25.9924 0.36242C20.3442 1.23887 15.0238 3.80442 10.7558 7.59444C6.51824 11.3574 3.40899 16.3332 1.85331 21.7794C0.234736 27.4458 0.353975 33.5846 2.15352 39.1923C3.8828 44.581 7.17732 49.4232 11.5207 53.0453C15.9358 56.727 21.3549 59.0558 27.0553 59.7672C32.8809 60.4942 38.8676 59.4492 44.1195 56.837C49.1669 54.3266 53.4435 50.3525 56.3752 45.544C59.2203 40.8775 60.7085 35.4507 60.7167 29.9908C60.7175 29.4941 59.9474 29.4942 59.9467 29.9908Z" fill="white"/>
<path d="M23.0017 27.2311C24.7739 27.2311 26.2105 23.2981 26.2105 18.4464C26.2105 13.5948 24.7739 9.66174 23.0017 9.66174C21.2296 9.66174 19.793 13.5948 19.793 18.4464C19.793 23.2981 21.2296 27.2311 23.0017 27.2311Z" fill="white" stroke="white" stroke-miterlimit="10"/>
<path d="M39.0975 27.2311C40.8696 27.2311 42.3062 23.2981 42.3062 18.4464C42.3062 13.5948 40.8696 9.66174 39.0975 9.66174C37.3253 9.66174 35.8887 13.5948 35.8887 18.4464C35.8887 23.2981 37.3253 27.2311 39.0975 27.2311Z" fill="white" stroke="white" stroke-miterlimit="10"/>
<path d="M50.4207 31.433C50.4189 32.1499 50.3763 32.8649 50.2918 33.5769C50.2819 33.6612 50.2706 33.7455 50.2594 33.8297C50.284 33.6452 50.2446 33.9216 50.2425 33.9344C50.2171 34.1015 50.188 34.2679 50.1577 34.4341C50.0924 34.7924 50.0137 35.148 49.9264 35.5014C49.76 36.1759 49.5493 36.839 49.3054 37.4893C49.2472 37.6446 49.1856 37.7988 49.123 37.9526C49.02 38.2059 49.1909 37.795 49.0832 38.0463C49.0505 38.1224 49.0169 38.1981 48.9831 38.2738C48.8373 38.6016 48.6796 38.9241 48.5147 39.2427C48.1976 39.8554 47.842 40.4476 47.459 41.0212C47.2747 41.297 47.0815 41.5667 46.8831 41.8324C46.7193 42.0517 46.9884 41.6971 46.8208 41.9136C46.77 41.9793 46.7183 42.0443 46.6666 42.1093C46.5459 42.2612 46.4219 42.4105 46.2966 42.5586C45.8474 43.0901 45.3665 43.5942 44.8636 44.0749C44.6208 44.307 44.3707 44.5313 44.1166 44.7509C43.9892 44.861 43.8596 44.9688 43.7295 45.0757C43.6642 45.1293 43.5984 45.1819 43.5326 45.2347C43.4885 45.2698 43.4443 45.3047 43.4001 45.3395C43.4728 45.283 43.4673 45.287 43.3834 45.3516C42.2521 46.2194 41.0258 46.9606 39.7418 47.5792C39.4287 47.73 39.1111 47.8712 38.791 48.0065C38.97 47.9308 38.7038 48.0409 38.6905 48.0463C38.6094 48.079 38.528 48.1108 38.4464 48.1425C38.2557 48.2167 38.0635 48.2871 37.8707 48.3559C37.1748 48.6042 36.4651 48.8122 35.7477 48.9882C34.2002 49.3677 32.9571 49.5249 31.3796 49.5737C30.6016 49.5977 29.8224 49.5771 29.0462 49.5211C28.6793 49.4946 28.3135 49.4569 27.9484 49.4123C27.9491 49.4124 27.6519 49.3734 27.8172 49.3963C27.727 49.3838 27.6371 49.3702 27.5471 49.3566C27.3379 49.3249 27.1296 49.2889 26.9214 49.2513C25.4653 48.9879 24.0386 48.5684 22.6668 48.0147C22.6617 48.0127 22.3972 47.9021 22.5567 47.9695C22.4764 47.9357 22.3967 47.9007 22.317 47.8659C22.1579 47.7963 22.0001 47.7238 21.8427 47.6504C21.5035 47.4921 21.1696 47.3228 20.8392 47.1466C20.2099 46.811 19.6001 46.4398 19.0086 46.0416C18.727 45.8521 18.4513 45.654 18.1794 45.4507C17.9563 45.2839 18.3134 45.5549 18.0933 45.3846C18.0265 45.3329 17.9603 45.2805 17.8942 45.228C17.7401 45.1056 17.5886 44.9802 17.4381 44.8534C16.9037 44.4032 16.3957 43.9221 15.9116 43.4185C15.6804 43.1781 15.457 42.9303 15.2384 42.6784C15.1294 42.5527 15.0228 42.425 14.917 42.2965C14.8641 42.2323 14.8121 42.1675 14.7601 42.1026C14.7256 42.0594 14.6912 42.0159 14.6571 41.9723C14.715 42.047 14.7119 42.0427 14.6476 41.9592C14.2273 41.4112 13.8404 40.838 13.4826 40.2474C13.0823 39.5865 12.7277 38.8984 12.4138 38.1926C12.3801 38.1169 12.3474 38.0407 12.3148 37.9645C12.2728 37.8651 12.2717 37.8627 12.3118 37.9574C12.2908 37.9062 12.2701 37.855 12.2496 37.8037C12.1774 37.6239 12.1093 37.4425 12.043 37.2604C11.9004 36.8692 11.7742 36.4722 11.6593 36.0719C11.4428 35.3176 11.2818 34.5479 11.1671 33.7718C11.1644 33.7532 11.1268 33.4752 11.1524 33.6744C11.1379 33.5618 11.1254 33.449 11.1131 33.3361C11.0915 33.1378 11.0747 32.939 11.0598 32.74C11.0276 32.3095 11.0142 31.8776 11.0131 31.446C11.0119 30.9566 10.6137 30.5441 10.121 30.5409C9.63483 30.5376 9.2146 30.9435 9.21582 31.433C9.22988 37.2507 12.0079 42.7426 16.4989 46.3997C21.2429 50.2629 27.52 51.9627 33.5761 51.1982C39.5323 50.4462 45.0231 47.3927 48.5875 42.5308C50.9302 39.3354 52.2085 35.4054 52.218 31.4459C52.2193 30.9565 51.8169 30.5441 51.3259 30.5408C50.8379 30.5375 50.4219 30.9434 50.4207 31.433Z" fill="white"/>
<path d="M8.5123 32.6086C8.19162 32.8693 8.52103 32.6138 8.62288 32.5537C8.72434 32.4938 8.82971 32.4408 8.93618 32.3906C9.14745 32.2907 8.84364 32.4239 8.99086 32.3655C9.06781 32.3349 9.1461 32.3081 9.22452 32.2818C9.40376 32.2217 9.58763 32.1765 9.77258 32.1379C9.79979 32.1321 10.0944 32.0841 9.9551 32.102C10.0698 32.0873 10.1852 32.0793 10.3006 32.072C10.8204 32.0397 11.3315 32.0963 11.8374 32.2132C12.2635 32.3116 12.7039 32.085 12.823 31.6511C12.9354 31.2424 12.6866 30.7638 12.261 30.6655C10.6433 30.2917 8.71292 30.3893 7.37158 31.4799C7.03222 31.7559 7.09216 32.3326 7.37768 32.6146C7.71344 32.9463 8.17301 32.8845 8.5123 32.6086Z" fill="white"/>
<path d="M53.9361 31.2603C52.5999 30.1738 50.6666 30.079 49.057 30.4509C48.0478 30.6841 48.4665 32.2331 49.4723 32.0006C50.4108 31.7838 51.2388 31.7966 52.0851 32.0673C52.1639 32.0925 52.2415 32.1214 52.3188 32.1509C52.4592 32.2045 52.1794 32.0866 52.3828 32.1796C52.4899 32.2287 52.594 32.284 52.6961 32.3428C52.8053 32.4056 53.1019 32.6403 52.8076 32.401C53.1461 32.6763 53.6124 32.7289 53.9423 32.3949C54.2269 32.1067 54.2761 31.5368 53.9361 31.2603Z" fill="white"/>
</svg>
