<svg width="30" height="25" viewBox="0 0 30 25" fill="none" xmlns="http://www.w3.org/2000/svg">
<path d="M1.60723 3.21447C0.719976 3.21447 0 2.49449 0 1.60723C0 0.719467 0.719976 0 1.60723 0H28.3928C29.28 0 30 0.719467 30 1.60723C30 2.49449 29.28 3.21447 28.3928 3.21447H1.60723Z" fill="white"/>
<path d="M1.60774 13.9287C0.719467 13.9287 0 13.2092 0 12.3209C0 11.4337 0.719467 10.7137 1.60723 10.7137H28.3923C29.2795 10.7137 29.999 11.4337 29.999 12.3209C29.999 13.2087 29.2795 13.9282 28.3923 13.9282H1.60774V13.9287Z" fill="white"/>
<path d="M1.60774 24.6424C0.719467 24.6424 0 23.9224 0 23.0346C0 22.1474 0.719467 21.4279 1.60774 21.4279H28.3923C29.28 21.4279 30 22.1474 30 23.0346C30 23.9224 29.28 24.6424 28.3923 24.6424H1.60774V24.6424Z" fill="white"/>
</svg>
