<svg width="26" height="26" viewBox="0 0 26 26" fill="none" xmlns="http://www.w3.org/2000/svg">
<path d="M15.6279 13.0007L25.4543 3.17144C26.18 2.44571 26.18 1.27003 25.4543 0.544297C24.7285 -0.181432 23.5528 -0.181432 22.8271 0.544297L13.0007 10.3736L3.17144 0.5472C2.44571 -0.17853 1.27003 -0.17853 0.544297 0.5472C-0.181432 1.27293 -0.181432 2.44861 0.544297 3.17434L10.3736 13.0007L0.5472 22.83C-0.17853 23.5557 -0.17853 24.7314 0.5472 25.4572C0.910065 25.82 1.38614 26 1.85932 26C2.3325 26 2.80857 25.82 3.17144 25.4572L13.0007 15.6279L22.83 25.4543C23.5557 26.18 24.7314 26.18 25.4572 25.4543C25.82 25.0914 26 24.6153 26 24.1421C26 23.669 25.82 23.1929 25.4572 22.83L15.6279 13.0007Z" fill="white"/>
</svg>
