<svg width="40" height="40" viewBox="0 0 40 40" fill="none" xmlns="http://www.w3.org/2000/svg">
<path d="M25.1182 8.95515C26.69 8.95515 28.1974 9.57955 29.3089 10.691C30.4203 11.8024 31.0447 13.3099 31.0447 14.8817V25.1184C31.0447 26.6902 30.4203 28.1977 29.3089 29.3091C28.1974 30.4205 26.69 31.0449 25.1182 31.0449H14.8814C13.3096 31.0449 11.8022 30.4205 10.6907 29.3091C9.57931 28.1977 8.95491 26.6902 8.95491 25.1184V14.8817C8.95491 13.3099 9.57931 11.8024 10.6907 10.691C11.8022 9.57955 13.3096 8.95515 14.8814 8.95515H25.1182ZM25.1182 6.80005H14.8814C12.74 6.80644 10.6881 7.65995 9.17392 9.17417C7.65971 10.6884 6.8062 12.7403 6.7998 14.8817V25.1184C6.8062 27.2598 7.65971 29.3117 9.17392 30.8259C10.6881 32.3401 12.74 33.1937 14.8814 33.2H25.1182C27.2596 33.1937 29.3115 32.3401 30.8257 30.8259C32.3399 29.3117 33.1934 27.2598 33.1998 25.1184V14.8817C33.1934 12.7403 32.3399 10.6884 30.8257 9.17417C29.3115 7.65995 27.2596 6.80644 25.1182 6.80005V6.80005Z" fill="white"/>
<path d="M27.0416 11.3796C26.7363 11.3796 26.4379 11.4702 26.1841 11.6398C25.9302 11.8094 25.7324 12.0505 25.6155 12.3325C25.4987 12.6146 25.4681 12.9249 25.5277 13.2244C25.5873 13.5238 25.7343 13.7988 25.9502 14.0147C26.166 14.2306 26.4411 14.3776 26.7405 14.4372C27.0399 14.4967 27.3503 14.4662 27.6323 14.3493C27.9144 14.2325 28.1555 14.0346 28.3251 13.7808C28.4947 13.527 28.5852 13.2285 28.5852 12.9232C28.5852 12.7205 28.5453 12.5198 28.4677 12.3325C28.3902 12.1452 28.2765 11.9751 28.1331 11.8317C27.9898 11.6884 27.8196 11.5747 27.6323 11.4971C27.4451 11.4196 27.2443 11.3796 27.0416 11.3796V11.3796Z" fill="white"/>
<path d="M20.0724 15.2777C21.0146 15.2771 21.9358 15.5561 22.7195 16.0792C23.5031 16.6024 24.114 17.3462 24.4748 18.2166C24.8356 19.087 24.9302 20.0448 24.7465 20.969C24.5628 21.8931 24.1091 22.742 23.4429 23.4082C22.7766 24.0745 21.9277 24.5281 21.0036 24.7118C20.0794 24.8955 19.1216 24.801 18.2512 24.4402C17.3808 24.0793 16.637 23.4685 16.1138 22.6848C15.5907 21.9012 15.3118 20.98 15.3123 20.0378C15.3144 18.776 15.8166 17.5665 16.7089 16.6742C17.6011 15.782 18.8106 15.2798 20.0724 15.2777V15.2777ZM20.0724 13.1226C18.7046 13.1252 17.3683 13.5333 16.2324 14.2952C15.0965 15.0571 14.2119 16.1386 13.6904 17.403C13.169 18.6675 13.0341 20.0582 13.3027 21.3993C13.5714 22.7404 14.2316 23.9718 15.1999 24.9378C16.1682 25.9038 17.4011 26.5612 18.7428 26.8267C20.0846 27.0922 21.4749 26.9541 22.7382 26.4297C24.0014 25.9053 25.0809 25.0181 25.8401 23.8804C26.5993 22.7427 27.0043 21.4055 27.0037 20.0378C27.0034 19.1284 26.8237 18.228 26.4751 17.3881C26.1264 16.5482 25.6156 15.7853 24.9718 15.143C24.328 14.5008 23.5639 13.9917 22.7233 13.645C21.8826 13.2983 20.9818 13.1208 20.0724 13.1226V13.1226Z" fill="white"/>
</svg>
