<svg width="40" height="40" viewBox="0 0 40 40" fill="none" xmlns="http://www.w3.org/2000/svg">
<path d="M24.5697 16.9168C24.2043 12.6005 20.5746 9.19995 16.1663 9.19995C12.3704 9.19995 9.06863 11.744 8.05789 15.3453C7.95007 15.3378 7.84226 15.3333 7.73295 15.3333C4.35033 15.3333 1.59961 18.0848 1.59961 21.4666C1.59961 24.8485 4.35033 27.6 7.73295 27.6H23.833C26.7918 27.6 29.1996 25.1922 29.1996 22.2333C29.1996 19.5238 27.1812 17.2769 24.5697 16.9168ZM23.833 26.0666H7.73295C5.19636 26.0666 3.13294 24.0032 3.13294 21.4666C3.13294 18.93 5.19636 16.8666 7.73295 16.8666C8.00098 16.8666 8.26003 16.9041 8.51609 16.9475C9.43512 17.1155 10.3206 17.5496 10.9853 18.2135C11.135 18.3633 11.3312 18.4381 11.5274 18.4381C11.7235 18.4381 11.9197 18.3633 12.0694 18.2135C12.3689 17.9141 12.3689 17.4289 12.0694 17.1294C11.3702 16.4297 10.5256 15.924 9.59861 15.6293C10.4714 12.7591 13.1118 10.7333 16.1663 10.7333C19.9712 10.7333 23.0663 13.8284 23.0663 17.6333C23.0663 17.672 23.0659 17.8037 23.0648 17.8377C23.0423 18.6455 22.8761 19.4392 22.5737 20.1953C22.4164 20.5884 22.6066 21.0346 23.0004 21.1926C23.0933 21.23 23.1891 21.2473 23.2849 21.2473C23.5889 21.2473 23.8764 21.0653 23.9962 20.7659C24.293 20.0266 24.4507 19.2537 24.529 18.4703C26.311 18.7994 27.6663 20.358 27.6663 22.2333C27.6663 24.3469 25.9473 26.0666 23.833 26.0666Z" fill="white"/>
<path d="M31.6616 27.8364C31.5239 27.8364 31.3846 27.7997 31.2588 27.7218C30.898 27.4995 30.7872 27.027 31.0088 26.6669C31.8323 25.335 32.2666 23.8114 32.2666 22.2623C32.2666 20.6968 31.8249 19.1604 30.9878 17.8203C30.7632 17.4617 30.8725 16.9885 31.2319 16.7639C31.5883 16.5422 32.0629 16.6493 32.2876 17.0087C33.2773 18.5922 33.7999 20.4093 33.7999 22.2623C33.7999 24.0966 33.2863 25.898 32.3145 27.4725C32.1693 27.7076 31.9177 27.8364 31.6616 27.8364Z" fill="white"/>
<path d="M35.3331 30.6666C35.1864 30.6666 35.0381 30.6246 34.9079 30.5378C34.556 30.3027 34.4601 29.8265 34.6952 29.4746C36.1163 27.3446 36.8665 24.8409 36.8665 22.2332C36.8665 19.6255 36.1163 17.1218 34.6952 14.9918C34.4601 14.6399 34.556 14.1637 34.9079 13.9286C35.2553 13.6943 35.7344 13.7871 35.971 14.1413C37.5598 16.5236 38.3998 19.3223 38.3998 22.2332C38.3998 25.1442 37.5598 27.9428 35.971 30.3252C35.8228 30.5468 35.5802 30.6666 35.3331 30.6666Z" fill="white"/>
</svg>
