<svg width="40" height="40" viewBox="0 0 40 40" fill="none" xmlns="http://www.w3.org/2000/svg">
<path d="M2.00976 21.5872C1.92773 21.5872 1.87646 21.6487 1.8662 21.7307L1.59961 23.7815L1.8662 25.8014C1.87646 25.8835 1.93798 25.945 2.00976 25.945C2.08153 25.945 2.14305 25.8835 2.15331 25.8014L2.47117 23.7815L2.15331 21.7307C2.14305 21.6487 2.08153 21.5872 2.00976 21.5872ZM3.5273 20.4695C3.51705 20.3773 3.45553 20.3157 3.3735 20.3157C3.29147 20.3157 3.22994 20.3773 3.21969 20.4695L2.86081 23.7815L3.21969 27.0216C3.22994 27.1037 3.29147 27.1754 3.3735 27.1754C3.45553 27.1754 3.51705 27.1139 3.5273 27.0216L3.93745 23.7815L3.5273 20.4695ZM9.2386 17.4037C9.08479 17.4037 8.96175 17.5267 8.96175 17.6805L8.67465 23.7815L8.96175 27.7189C8.972 27.8727 9.09505 27.9957 9.2386 27.9957C9.38215 27.9957 9.50519 27.8727 9.51545 27.7189L9.84357 23.7815L9.51545 17.6805C9.51545 17.5267 9.3924 17.4037 9.2386 17.4037ZM6.28554 19.5262C6.17275 19.5262 6.08047 19.6185 6.07021 19.7415L5.74209 23.7815L6.07021 27.6881C6.08047 27.8112 6.17275 27.9035 6.28554 27.9035C6.39833 27.9035 6.49061 27.8112 6.50087 27.6881L6.87 23.7815L6.50087 19.7415C6.49061 19.6185 6.39833 19.5262 6.28554 19.5262ZM12.2532 28.006C12.4377 28.006 12.5916 27.8522 12.5916 27.6676L12.8787 23.7917L12.5916 15.6708C12.5813 15.476 12.4377 15.3324 12.2532 15.3324C12.0686 15.3324 11.9148 15.4862 11.9148 15.6708L11.6585 23.7917L11.9148 27.6676C11.9148 27.8522 12.0686 28.006 12.2532 28.006ZM18.4054 28.0162C18.6617 28.0162 18.8668 27.8112 18.8771 27.5548L19.0719 23.7917L18.8771 14.4096C18.8771 14.1533 18.6617 13.9482 18.4054 13.9482C18.149 13.9482 17.944 14.1533 17.9337 14.4199L17.7594 23.7917C17.7594 23.802 17.9337 27.5651 17.9337 27.5651C17.944 27.8112 18.149 28.0162 18.4054 28.0162ZM15.3088 28.006C15.5344 28.006 15.7087 27.8317 15.7189 27.6061L15.9548 23.7917L15.7189 15.6093C15.7087 15.3837 15.5344 15.2094 15.3088 15.2094C15.0832 15.2094 14.9089 15.3837 14.8986 15.6093L14.6833 23.7917L14.8986 27.6061C14.9089 27.8317 15.0832 28.006 15.3088 28.006ZM7.76207 27.965C7.89537 27.965 7.9979 27.8624 8.00816 27.7189L8.35678 23.7815L8.00816 20.0286C7.9979 19.8851 7.89537 19.7825 7.76207 19.7825C7.62877 19.7825 7.52623 19.8851 7.51598 20.0286L7.20837 23.7815L7.51598 27.7189C7.51598 27.8624 7.62877 27.965 7.76207 27.965ZM4.81926 27.7496C4.91155 27.7496 4.99358 27.6779 5.00383 27.5651L5.39347 23.7712L5.00383 19.8338C4.99358 19.7313 4.91155 19.6492 4.81926 19.6492C4.72698 19.6492 4.64495 19.721 4.6347 19.8338L4.28607 23.7712L4.6347 27.5651C4.64495 27.6779 4.72698 27.7496 4.81926 27.7496ZM16.8468 15.476C16.611 15.476 16.4162 15.6708 16.4059 15.9067L16.2111 23.7917L16.4059 27.5856C16.4059 27.8317 16.6007 28.0162 16.8468 28.0162C17.0827 28.0162 17.2775 27.8214 17.2877 27.5856L17.5031 23.7917L17.2877 15.9067C17.2775 15.6606 17.0929 15.476 16.8468 15.476ZM10.7459 28.006C10.9099 28.006 11.0535 27.8727 11.0535 27.6984L11.3611 23.7815L11.0535 16.286C11.0432 16.1117 10.9099 15.9784 10.7459 15.9784C10.5818 15.9784 10.4383 16.1117 10.4383 16.286L10.1717 23.7815L10.4383 27.6984C10.4383 27.8727 10.5716 28.006 10.7459 28.006ZM14.1501 27.6369L14.4167 23.7815L14.1501 15.3837C14.1399 15.1786 13.9758 15.0146 13.781 15.0146C13.5759 15.0146 13.4118 15.1786 13.4118 15.3837L13.176 23.7815L13.4118 27.6369C13.4221 27.8419 13.5862 28.006 13.781 28.006C13.9758 28.006 14.1399 27.8419 14.1501 27.6369ZM33.9602 18.952C33.3347 18.952 32.74 19.075 32.2068 19.3006C31.848 15.2094 28.413 12 24.2295 12C23.2041 12 22.2095 12.2051 21.3277 12.5434C20.9893 12.6767 20.897 12.81 20.8868 13.0766V27.4831C20.8868 27.7599 21.1021 27.9957 21.379 28.0162C21.3892 28.0162 33.8884 28.0265 33.9602 28.0265C36.4724 28.0265 38.5026 25.9963 38.5026 23.4841C38.5026 20.9822 36.4724 18.952 33.9602 18.952ZM19.9537 13.0664C19.6768 13.0664 19.4615 13.292 19.4513 13.5688L19.2462 23.802L19.4513 27.5138C19.4513 27.7804 19.6768 28.006 19.9537 28.006C20.2305 28.006 20.4459 27.7804 20.4561 27.5036L20.6817 23.7917L20.4561 13.5586C20.4561 13.292 20.2305 13.0664 19.9537 13.0664Z" fill="white"/>
</svg>
